<?xml version="1.0" encoding="UTF-8"?><svg id="Ebene_2" xmlns="http://www.w3.org/2000/svg" width="102.05" height="102.29" xmlns:xlink="http://www.w3.org/1999/xlink" viewBox="0 0 102.05 102.29"><defs><clipPath id="clippath"><rect width="102.05" height="102.29" style="fill:none; stroke-width:0px;"/></clipPath><clipPath id="clippath-1"><rect y="0" width="102.05" height="102.29" style="fill:none; stroke-width:0px;"/></clipPath></defs><g id="Ebene_1-2"><g id="Bildmaterial_16"><g style="clip-path:url(#clippath);"><g style="clip-path:url(#clippath-1);"><path d="M3.52,56.68c0-.16-.05-.28-.12-.36-.08-.08-.18-.14-.29-.18-.12-.04-.24-.08-.38-.1-.14-.03-.27-.07-.38-.13-.12-.06-.22-.14-.29-.26-.08-.11-.12-.28-.13-.49l-.04-1.69c0-.07.02-.14.06-.21.04-.07.09-.13.15-.18.06-.05.12-.09.18-.13.06-.03.11-.05.13-.05.07,0,.15,0,.23.02.08.01.16.02.24.02l1.94-.05.12.06c.1.04.17.06.21.06l1.61-.04c.18,0,.34,0,.47.02.11.02.22.05.31.08.1.04.15.09.15.16l.18.72s.02.09.05.19c.03.1.07.19.11.29.04.12.09.25.15.39.08.08.18.15.28.21.1.06.2.12.29.17.11.06.23.11.34.14.05,0,.09,0,.11-.02.03-.01.05-.03.07-.05.03-.02.05-.04.06-.06,0-.17-.03-.27-.07-.3-.04-.03-.06-.07-.06-.12,0-.04,0-.12,0-.24,0-.12,0-.23.01-.34,0-.13,0-.28,0-.44,0-.23-.04-.44-.1-.63-.06-.19-.09-.31-.09-.37l-.04-1.35v-.09c.05-.08.08-.18.1-.28.02-.11.03-.22.03-.33,0-.12,0-.23,0-.34,0-.11,0-.21,0-.31.02-.08.04-.17.07-.25.03-.09.04-.18.04-.27-.04-.24-.12-.42-.25-.54-.13-.12-.27-.17-.41-.16-.15.01-.29.1-.42.25-.13.16-.22.39-.26.69,0,.17-.01.32-.06.44-.04.12-.09.26-.13.41-.05.05-.1.11-.15.17-.05.06-.12.12-.2.17-.08.05-.18.1-.31.13-.13.03-.29.05-.49.06l-2.46.06-.59-.06c-.06.06-.12.09-.19.09-.07,0-.14,0-.22,0l-.73.02c-.2,0-.37-.05-.51-.16-.14-.11-.21-.28-.22-.49-.02-.06-.04-.12-.07-.18-.02-.05-.04-.11-.05-.17-.01-.06-.02-.12-.02-.17l-.02-.83c0-.21.03-.37.1-.48.07-.11.17-.19.28-.24.12-.05.24-.09.38-.12.14-.02.26-.05.38-.09.12-.04.21-.1.28-.17.07-.08.11-.2.11-.38,0-.1-.05-.18-.14-.24-.09-.06-.2-.1-.32-.12-.12-.02-.23-.03-.34-.04-.11,0-.19,0-.23,0l-1.09.03s-.11.01-.21.04c-.1.02-.2.05-.3.08-.1.03-.19.07-.26.1-.08.04-.11.07-.11.1,0,.03.03.08.08.14.05.07.11.15.17.25.06.1.11.23.17.37.06.14.08.3.09.48l.02.73c0,.2.02.42.06.65.03.23.05.45.05.66l-.07.43.09.41.06,2.29c0,.06,0,.12,0,.17,0,.05-.02.1-.02.14,0,.04-.01.08-.03.11v.3c0,.06.02.15.05.27.03.12.04.21.04.27,0,.11,0,.2-.04.27-.03.07-.07.13-.12.19-.06.09-.11.18-.16.25-.05.08-.07.18-.07.31,0,.07.05.13.14.18.09.05.2.09.32.12.12.03.24.06.34.07.11.01.17.02.21.02l.73.16s.09,0,.17.02c.08.01.17.03.26.04.09.01.18.02.27.03s.15.01.19.01c.13,0,.25-.04.37-.11s.17-.18.17-.33" style="fill:#fff; stroke-width:0px;"/><path d="M3.2,39.21c.01-.06.05-.15.12-.28.06-.12.13-.25.2-.37s.14-.24.19-.34c.06-.11.09-.17.1-.2.08-.06.18-.09.3-.07.12.01.21.03.27.04.1-.06.18-.09.25-.09.07,0,.14.01.2.03h.43s.11.09.23.15c.12.06.23.13.35.22.12.09.22.19.3.3.08.11.11.24.07.36l-.19.26s-.01.11,0,.18c.01.07.03.15.04.24.02.1.04.2.05.29-.02.07-.05.15-.11.25-.06.09-.13.18-.22.25-.09.07-.18.12-.27.15-.09.03-.19.02-.28-.04-.05-.01-.08-.01-.1,0-.02,0-.04.02-.06.03l-.04.05c-.06-.01-.12-.05-.17-.1-.05-.06-.12-.09-.2-.11l-.25-.06-.58-.14-.25-.06c-.14-.03-.23-.09-.28-.17-.05-.08-.06-.15-.05-.22-.03-.08-.05-.15-.05-.22s0-.12-.01-.17c0-.05,0-.1,0-.14M1.09,43.19c.02.05.05.08.08.09.15.04.27.04.38,0,.1-.04.19-.1.26-.18.07-.08.13-.17.18-.28.05-.1.08-.21.11-.32l.14-.58c.06-.12.15-.2.26-.24.12-.04.24-.06.37-.05.13,0,.26.02.4.05.14.02.26.03.37.03l1.03.38,2.39.59,1.55.38c.13.03.23.13.31.29.08.16.1.34.05.53l-.07.29c-.03.08-.06.15-.08.21-.02.06-.05.11-.07.17-.02.06-.04.1-.05.13.02.07.04.12.07.17.02.05.04.09.06.12.02.04.05.06.08.07.11.03.21-.03.31-.16.1-.13.19-.28.27-.46.08-.17.15-.34.2-.5.06-.16.09-.25.09-.28l.14-.58.06-.25.17-.69.08-.32.32-.8.13-.53c.01-.06,0-.13-.03-.21-.03-.08-.08-.13-.15-.15-.15-.04-.28.01-.39.15-.11.13-.23.28-.35.44-.12.16-.26.3-.42.42-.15.12-.35.16-.59.1l-.3-.07h-.73c-.07-.03-.16-.05-.26-.09-.11-.04-.2-.08-.29-.14-.09-.06-.16-.13-.22-.21-.06-.08-.07-.18-.04-.3.03-.14.09-.23.18-.28.09-.05.18-.13.3-.25.08-.05.17-.1.29-.13.12-.03.25-.07.38-.1.14-.03.29-.08.44-.12.16-.05.33-.12.5-.2.11-.07.23-.14.37-.22.13-.08.26-.16.39-.23.12-.08.23-.15.33-.22.1-.07.16-.13.21-.18.12-.13.25-.23.37-.31.13-.08.3-.24.52-.47.04-.06.07-.15.1-.27.03-.11.08-.2.16-.25.01-.02.04-.08.07-.19.03-.11.06-.23.07-.36.02-.14.02-.27,0-.39-.02-.12-.08-.22-.18-.27-.07-.04-.12-.06-.15-.06-.03,0-.07.02-.15.06-.09.05-.17.14-.26.25-.09.11-.15.2-.18.25-.07.15-.16.27-.29.37-.12.1-.26.18-.4.25-.14.07-.29.14-.43.21-.14.06-.26.15-.37.24-.04.05-.15.11-.31.17-.16.06-.34.11-.54.16-.2.04-.39.08-.59.09-.19.02-.34,0-.45-.02-.1-.02-.17-.06-.22-.12-.05-.06-.08-.12-.1-.19-.02-.07-.04-.14-.07-.21-.02-.07-.07-.14-.12-.19-.08-.08-.19-.19-.32-.31-.13-.12-.27-.24-.42-.36-.15-.11-.3-.22-.46-.31-.16-.09-.3-.15-.44-.19-.03,0-.1-.01-.2-.02-.1,0-.21,0-.33,0-.12,0-.23.01-.32.03-.09.02-.14.05-.15.09-.11,0-.22,0-.31.05-.09.04-.18.08-.26.12-.16.14-.37.22-.62.24-.16.11-.34.23-.54.36-.19.13-.32.3-.37.5l-.14.57c0,.11-.01.22-.02.32,0,.08,0,.17-.01.25,0,.08-.02.14-.03.17l-.37,1.52-.5,2.52c0,.09.03.16.05.23.02.06.04.11.06.16" style="fill:#fff; stroke-width:0px;"/><path d="M5.73,30.51c.18,0,.32-.09.41-.26l.2-.38s.08-.1.18-.16c.1-.06.18-.07.26-.03l.41.21.38.2.71.37c.05.03.09.05.1.08.01.02.04.05.1.08l.23.12.89.6.34.18.48.25.26.13c.07.01.14.03.2.04.05,0,.11.02.16.03s.1.04.15.06c.09-.03.15-.02.18.03s.07.1.12.12c.3.15.47.29.51.4.05.11.04.27-.03.47-.02.1-.03.24-.04.41,0,.09,0,.18-.02.26-.17.33-.15.56.08.67.03.01.07.02.14.01.07,0,.14-.02.21-.04.07-.02.14-.05.2-.08.06-.04.11-.08.13-.12l.18-.42.06-.31.21-.4.37-.71.13-.51.64-1.33c.05-.1.1-.18.15-.24.05-.06.1-.11.15-.15.05-.04.09-.08.13-.11.04-.04.07-.08.1-.14.08-.14.1-.27.07-.38-.03-.11-.08-.21-.16-.32-.08-.1-.16-.21-.26-.33-.09-.12-.16-.27-.22-.46-.02-.09-.05-.17-.08-.25-.03-.07-.08-.12-.14-.16-.03-.01-.06-.01-.1,0-.04.01-.08.03-.12.04-.05.02-.1.04-.15.06-.06.11-.1.24-.12.39-.02.15-.05.32-.07.5,0,.19-.01.38-.04.55-.03.17-.07.32-.14.45l-.39.75c-.1.12-.2.19-.31.22-.11.02-.22.02-.34-.02-.12-.03-.24-.08-.38-.14-.13-.06-.27-.1-.4-.14l-.34-.18c-.24-.13-.39-.24-.43-.35-.05-.1-.01-.27.1-.49l.14-.27.11-.22c.05-.1.12-.17.2-.21.08-.04.16-.11.25-.19.07-.03.15-.07.23-.12.08-.05.14-.12.19-.22.12-.22.05-.4-.2-.53l-.89-.46-.23.05c-.06.01-.12.03-.18.04-.06.02-.09.04-.1.07-.03.05-.04.11-.03.18s.02.14.03.21c.01.07.02.15.03.23,0,.08-.01.15-.05.22l-.14.27c-.03.1-.06.19-.08.28-.02.08-.04.16-.06.22-.02.07-.04.11-.06.14-.06.12-.17.17-.31.16-.15,0-.29-.05-.43-.12l-.97-.5s-.06-.04-.11-.08c-.05-.04-.1-.08-.14-.12-.05-.05-.11-.1-.17-.16l-.12-.06s-.07-.07-.1-.14c-.03-.08-.07-.16-.12-.26l.07-.29c.17-.32.36-.58.56-.77.21-.19.41-.34.6-.46.19-.12.36-.21.5-.27.14-.06.23-.12.25-.17.12-.22.09-.38-.08-.47-.13,0-.25,0-.37-.02-.09,0-.18,0-.28,0-.1,0-.16,0-.2.01-.14,0-.3-.04-.47-.11-.17-.07-.33-.1-.48-.1-.09.04-.18.1-.28.17-.09.07-.16.14-.19.2-.01.03-.03.07-.05.13-.02.06-.03.12-.04.18-.01.07-.03.15-.05.23l-.12.5c-.08.15-.15.27-.21.36-.06.09-.11.17-.15.23-.04.06-.08.12-.11.17-.03.04-.07.09-.09.15l-.49.93c-.09.17-.16.32-.2.43-.04.12-.08.21-.11.26l-.14.27-.23.44c-.03.05-.03.12-.01.19.02.07.06.12.11.15.19.1.38.15.56.15" style="fill:#fff; stroke-width:0px;"/><path d="M19.34,22.85c-.03-.06-.06-.11-.09-.14l-.13-.11c-.12-.1-.24-.1-.36,0-.11.1-.23.22-.35.35-.12.13-.25.23-.41.3-.16.07-.34.01-.56-.17-.03-.03-.08-.08-.14-.15-.06-.07-.13-.15-.19-.23-.07-.1-.14-.2-.23-.31l-.63-.31-.68-.56-.55-.46-1.53-1.27c-.05,0-.09-.03-.12-.07-.03-.04-.05-.09-.05-.15,0-.06,0-.11,0-.17s.03-.1.05-.13l.17-.2s.1-.09.21-.18c.11-.09.25-.18.4-.27.15-.09.31-.16.48-.22.17-.06.32-.08.46-.07.09,0,.17.02.24.06.06.04.12.08.17.12.31.26.53.49.65.7.12.21.19.39.19.56,0,.17-.03.32-.1.45-.07.14-.13.26-.19.37-.06.11-.1.22-.11.31-.01.1.03.19.14.28.09.07.18.09.29.07s.22-.08.34-.14c.11-.07.22-.14.31-.23.09-.09.16-.16.21-.21.02-.02.04-.07.06-.13.02-.06.04-.13.06-.21.02-.08.04-.15.07-.22.03-.07.05-.12.08-.15.11-.24.14-.47.11-.7-.03-.23-.11-.44-.22-.63-.11-.19-.24-.36-.39-.52-.15-.16-.29-.29-.42-.4-.12-.1-.3-.21-.54-.35-.24-.13-.51-.24-.79-.32-.28-.08-.57-.11-.85-.09-.28.02-.51.14-.69.36l-.27.33-1,.82-1.67,2.01c-.1,0-.16,0-.19,0-.02,0-.06.04-.11.09-.03.03-.05.08-.07.15s-.03.15-.03.23c0,.08,0,.16.03.24.02.08.07.15.14.21.05.04.11.05.2.02.09-.03.18-.07.27-.12.09-.05.18-.11.25-.17.07-.06.12-.1.14-.12l.11-.13c.14-.16.29-.26.46-.29.17-.03.31,0,.43.1.04.08.08.15.12.22.07.12.14.22.22.28l.33.27c.12.1.22.15.32.15.09,0,.16.03.21.07l.23.19.42.35c.09.08.16.14.2.19.04.05.06.1.08.14.02.05.03.08.03.11,0,.03.02.05.04.07.06.05.16.1.29.13s.22.07.27.12c.02.02.05.06.09.11.03.06.07.11.1.16.03.07.08.14.13.2l.33.06.32.49.35.29c.22.18.24.38.06.59l-.36.43-.2.05c-.09.11-.14.21-.13.3,0,.09.02.18.07.26.04.08.1.16.17.22.07.07.13.12.19.17.12.1.22.15.31.16.09,0,.18,0,.26-.03.08-.03.15-.09.22-.16.07-.08.14-.15.21-.24.05-.06.11-.14.19-.26.08-.12.16-.25.23-.38.08-.13.15-.25.22-.36.07-.11.12-.18.14-.21l.62-.75c.05-.06.15-.14.31-.24.15-.1.26-.18.31-.24l.16-.2s.04-.08.03-.15c0-.07-.02-.14-.04-.21-.03-.07-.05-.14-.08-.21" style="fill:#fff; stroke-width:0px;"/><path d="M19.75,12.83l1.36-1c.06-.04.13-.06.21-.07.08,0,.16,0,.23.03.08.02.15.04.21.07.06.03.1.06.12.08.04.06.08.12.12.2.03.07.08.14.12.21l1.15,1.57.02.13c.03.11.05.18.08.21l.95,1.3c.11.15.19.28.25.4.05.1.09.2.11.31.02.1,0,.17-.05.22l-.49.56s-.07.07-.13.15c-.06.08-.12.17-.18.26-.07.1-.15.22-.24.34-.02.11-.02.23-.02.35,0,.12.02.23.03.34.02.13.04.25.08.36.03.04.06.07.08.08.02.01.05.02.08.03.03.01.06.02.08.01.14-.1.21-.18.21-.23,0-.05.02-.09.06-.12.03-.02.1-.07.19-.13.1-.07.19-.13.29-.18.11-.07.23-.15.36-.25.19-.14.34-.28.46-.44.12-.16.2-.25.25-.29l1.09-.8.07-.05c.09,0,.19-.03.29-.08.1-.05.19-.1.29-.17.1-.06.19-.13.28-.2.09-.06.17-.12.25-.17.08-.03.16-.06.25-.09.09-.03.17-.07.24-.12.18-.17.28-.34.3-.51.02-.17-.01-.32-.11-.43-.09-.11-.24-.18-.45-.2-.2-.02-.44.04-.72.18-.14.1-.27.17-.4.21-.12.03-.26.08-.42.13-.07-.01-.15-.02-.23-.03-.08,0-.17-.03-.26-.07-.09-.04-.18-.1-.28-.18-.1-.08-.21-.21-.33-.37l-1.45-1.99-.29-.52c-.08-.01-.15-.05-.18-.1s-.08-.12-.12-.18l-.43-.59c-.12-.16-.17-.33-.16-.51.01-.18.11-.33.28-.46.04-.05.07-.1.11-.16.03-.05.07-.09.11-.14.04-.04.09-.08.13-.11l.67-.49c.17-.12.32-.19.45-.19.13,0,.25.03.36.09.11.06.21.15.31.24.1.1.19.18.29.26.1.07.2.12.31.13.11.02.23-.03.37-.13.08-.06.12-.14.11-.25,0-.11-.03-.22-.08-.33-.05-.11-.1-.21-.16-.3-.06-.09-.1-.15-.13-.19l-.65-.88s-.07-.08-.15-.15c-.08-.07-.16-.14-.24-.2-.08-.06-.16-.11-.24-.16-.07-.04-.12-.05-.15-.03-.02.02-.05.07-.07.15-.02.08-.06.17-.11.28-.05.11-.12.22-.21.35-.08.12-.2.24-.35.35l-.59.43c-.16.12-.33.26-.5.41-.17.15-.34.29-.51.42l-.39.19-.29.3-1.85,1.36s-.1.07-.14.09c-.05.02-.09.04-.12.06-.04.02-.07.03-.11.03l-.25.18s-.11.1-.2.19c-.08.09-.15.16-.2.19-.09.07-.17.11-.24.12-.07.01-.15.02-.22.01-.11,0-.21.01-.3.01-.09,0-.19.05-.3.12-.06.04-.08.11-.07.22.01.1.04.21.08.33.04.12.09.23.14.32.05.1.09.15.1.18l.28.7s.05.07.08.15c.04.07.07.15.12.24.04.08.08.16.13.24.04.08.08.13.1.16.08.11.18.19.3.24s.24.04.37-.05c.13-.1.21-.2.23-.31.02-.11.01-.22-.02-.35-.03-.12-.08-.25-.13-.37-.06-.13-.1-.26-.11-.39-.02-.13,0-.26.04-.39.05-.13.16-.26.33-.38" style="fill:#fff; stroke-width:0px;"/><path d="M31.96,6.47c.02-.33.07-.63.15-.91.08-.28.2-.45.36-.51.14-.02.28-.05.4-.07.11-.02.22-.05.33-.08.11-.03.2-.06.28-.09l.27-.1c.1-.04.21-.05.34-.03.13.01.26.04.39.08.13.04.25.08.38.13.12.05.23.09.33.12.21.19.4.33.57.43.17.09.31.18.44.25.13.08.24.16.34.26.1.1.18.25.26.44l.36.94.15.4c.1.26.13.54.09.83-.04.29-.12.57-.25.82s-.28.48-.48.67c-.19.19-.39.33-.58.4l-.27.1c-.23.09-.52.08-.88-.02-.36-.1-.71-.24-1.06-.42-.35-.18-.66-.37-.93-.57-.27-.21-.43-.38-.48-.51l-.33-.86-.09-.24c-.03-.08-.05-.26-.07-.54-.02-.29-.02-.59,0-.92M30.29,7.65c.01.15.02.27.01.37,0,.1,0,.19,0,.29,0,.09,0,.18.02.26.01.08.03.17.07.27.18.47.45.93.81,1.38s.73.87,1.11,1.27c.28.26.59.41.9.44.32.04.62.06.92.08.17.01.32.02.46.02.12,0,.25,0,.38-.01.13-.02.23-.04.31-.07l.24-.09c.08-.03.15-.06.22-.1.06-.03.12-.07.18-.09.05-.03.1-.05.14-.06.19-.07.34-.12.46-.14.12-.02.23-.05.35-.09.27-.11.49-.28.65-.53.16-.25.33-.52.51-.81.13-.14.26-.3.37-.49.12-.19.17-.4.16-.62,0-.07.02-.22.04-.45.02-.23.04-.48.06-.75.02-.27.03-.52.03-.76,0-.24-.02-.41-.06-.51l-.15-.4-.32-.95c-.08-.2-.21-.4-.39-.62-.19-.22-.49-.4-.92-.55-.1-.04-.22-.12-.36-.25-.14-.13-.26-.21-.36-.25-.17-.08-.36-.12-.57-.1-.2.02-.39.02-.56,0-.04-.02-.11-.03-.21-.03-.1,0-.2,0-.31,0-.12,0-.25,0-.38.02l-.28.11-.56.07-.27.1-.68.26c-.09.04-.18.09-.26.16-.08.07-.17.15-.25.24-.08.1-.17.17-.27.22-.1.05-.2.09-.33.14l-.34.31c-.09.04-.18.15-.27.34-.09.19-.16.39-.21.61-.06.22-.1.42-.13.6-.03.18-.04.29-.03.32-.02.17-.03.33-.02.46,0,.14.03.28.09.42" style="fill:#fff; stroke-width:0px;"/><path d="M41.97,1.86c.17.13.35.32.54.54.19.23.37.56.54.98,0,.02.04.09.11.2.07.11.14.22.21.33.08.13.14.24.2.35.06.1.08.17.09.19l.02.42c.04.11.08.21.12.31.03.08.07.16.1.25.03.08.07.15.12.18.22.32.4.67.54,1.03.15.36.33.76.57,1.2.08.06.13.12.15.2.02.08.03.19.04.33.02.05.04.1.07.16.02.06.04.13.04.21.02.06.05.13.08.2.03.07.06.13.11.17.09.13.17.25.25.38.08.12.15.22.21.29.14,0,.26-.02.35-.03.1-.01.21-.06.35-.14.06-.06.09-.14.1-.22,0-.08,0-.16,0-.24,0-.02.01-.08.04-.17.03-.09.06-.19.09-.29l.13-.4c0-.14.04-.38.15-.72.1-.34.22-.69.36-1.05.15-.41.33-.87.53-1.36.05-.22.1-.42.16-.62.06-.2.15-.38.28-.54,0-.02.02-.07.03-.14.01-.07.02-.15.03-.22.01-.08.02-.14.04-.19.01-.05.03-.07.04-.05,0,.01.01.05.03.13.02.08.04.15.06.23.02.08.04.15.06.22s.03.11.03.12c.05.09.08.18.1.28.03.1.04.18.04.23l.28.41s0,.08.02.14c.01.06.03.12.05.19.02.07.04.14.06.21.02.07.03.13.03.17.14.18.25.33.33.46.08.13.16.27.22.4.06.13.12.28.19.43s.16.34.28.56c.08.06.13.12.15.21.02.08.03.19.04.33.02.05.05.1.09.16.04.06.06.13.06.21.02.06.05.13.07.2.02.08.06.13.12.17.07.13.12.21.16.24.04.03.11.09.19.17.05,0,.09.01.12.04.03.03.08.05.15.07.03.09.09.13.17.13.1,0,.18-.03.24-.08.06-.05.1-.11.12-.17s.03-.13.04-.2c0-.07,0-.12,0-.16,0-.02,0-.07.02-.15.01-.08.02-.16.04-.25l.07-.34c0-.07,0-.17.04-.31.03-.13.06-.28.11-.45.04-.17.09-.35.15-.56.06-.2.13-.4.2-.6.15-.46.32-.97.52-1.52.08-.13.13-.23.16-.32.03-.09.05-.17.06-.26.01-.09.02-.17.03-.26,0-.09.03-.19.08-.32.08-.07.16-.14.24-.22.08-.08.12-.17.12-.26l.37-.9.11-.55c.02-.12.07-.22.15-.28.07-.07.16-.11.25-.15.09-.03.2-.06.31-.08.12-.02.23-.03.35-.05.07-.01.14-.03.22-.04.07-.01.14-.04.2-.09.06-.04.11-.1.14-.18.04-.07.05-.18.05-.32,0-.17-.05-.29-.13-.36-.08-.07-.19-.1-.32-.09l-.76.04c-.12,0-.21.02-.26.04-.05.02-.1.04-.14.05-.05.02-.1.03-.16.05-.06.01-.16.02-.29.03l-.67.03c-.08-.06-.15-.09-.19-.1-.04,0-.14,0-.29,0-.03,0-.08.01-.16.03s-.15.05-.24.1c-.08.04-.16.1-.21.15-.06.06-.08.13-.08.22,0,.14.05.23.13.28s.16.07.25.09c.09.02.17.04.25.07.08.03.12.1.12.2,0,.2-.05.53-.16.98-.01.11-.05.23-.11.36s-.11.25-.14.37c-.1.28-.19.54-.28.8-.09.25-.19.43-.29.54,0,.03,0,.09,0,.17,0,.08-.02.17-.03.27-.02.1-.04.19-.08.29-.04.1-.09.19-.16.26-.02.01-.04.06-.06.13-.02.08-.04.16-.06.24-.02.08-.04.16-.06.24-.02.08-.03.12-.04.13,0,.01-.03-.03-.08-.13-.04-.1-.08-.21-.12-.33-.04-.12-.09-.23-.13-.34-.05-.11-.08-.17-.1-.19-.1-.12-.2-.29-.3-.51-.1-.22-.19-.44-.28-.65-.08-.21-.15-.41-.2-.58-.05-.17-.08-.26-.08-.28,0-.17-.05-.32-.11-.44-.07-.12-.13-.22-.18-.3-.14-.23-.22-.49-.24-.79.1-.08.22-.14.37-.18.15-.04.3-.08.44-.13.14-.04.27-.1.36-.16.1-.07.14-.17.14-.31,0-.17-.06-.29-.14-.36-.08-.07-.19-.1-.31-.09l-.73.04c-.14,0-.24.02-.28.04-.04.02-.08.03-.11.05-.03.02-.07.03-.13.04-.06.01-.17.02-.36.03l-.71.03c-.13-.05-.22-.08-.26-.09-.04,0-.09-.01-.17,0-.03,0-.08.01-.16.03-.08.02-.15.05-.22.09-.07.04-.14.1-.19.15-.05.06-.08.13-.07.22,0,.14.05.23.12.28.07.04.15.07.23.09.08.02.16.04.23.07.07.03.11.1.12.2,0,.17-.03.38-.13.61-.1.24-.2.51-.3.81-.07.17-.14.33-.2.5-.06.17-.12.33-.17.49-.06.15-.12.29-.18.41-.06.12-.12.21-.18.28,0,.02,0,.07-.02.15-.01.08-.03.16-.06.25-.03.09-.06.19-.09.29-.04.1-.08.18-.12.26-.02.01-.04.06-.06.14s-.04.17-.06.26c-.01.09-.03.18-.05.25-.02.08-.03.12-.06.12-.02,0-.05-.04-.07-.11-.03-.08-.06-.16-.1-.25-.03-.09-.07-.18-.1-.26-.03-.08-.06-.14-.08-.16-.02-.07-.05-.14-.07-.22-.02-.07-.06-.14-.12-.2-.08-.13-.16-.27-.23-.43-.08-.16-.15-.31-.21-.45-.06-.14-.12-.27-.15-.37-.04-.1-.06-.17-.06-.19,0-.08-.03-.18-.08-.29-.05-.11-.1-.22-.16-.33l-.22-.39c0-.08-.04-.16-.1-.25-.06-.08-.12-.17-.19-.26-.09-.1-.15-.18-.18-.26-.03-.07-.05-.15-.06-.23,0-.1.06-.18.19-.24.13-.06.28-.11.44-.16.16-.05.31-.11.44-.18.13-.07.2-.18.19-.34,0-.14-.05-.23-.13-.26-.08-.03-.18-.07-.32-.13l-.45.02s-.1,0-.17.02c-.08.01-.15.03-.23.06-.1.03-.2.05-.3.08l-1.99.1c-.15,0-.26.07-.32.18-.06.11-.09.22-.08.31,0,.14.07.26.18.34.11.09.25.2.42.33" style="fill:#fff; stroke-width:0px;"/><path d="M60.16,6.21c.14.02.26,0,.33-.05.07.01.15,0,.24-.05.1-.05.18-.07.26-.05.15-.03.3-.04.43-.03.14,0,.24,0,.32-.05.1-.05.19-.08.3-.1.1-.01.18-.01.24,0,.15.03.26.05.34.05.08,0,.15.01.22.03.08-.05.17-.13.24-.22.08-.09.15-.18.21-.28.06-.1.11-.18.15-.26.04-.08.06-.13.07-.16l.06-.25c-.17-.04-.29-.04-.38,0-.09.03-.17.07-.26.13-.11-.07-.21-.07-.31-.02-.1.06-.18.07-.26.06h-.39c-.15.03-.29.04-.41.01-.12-.02-.22-.01-.29.03-.24.03-.48.09-.69.18-.22.09-.45.17-.71.24-.07.06-.14.17-.18.33-.05.17-.08.28-.1.35l.12.03c.15.03.29.06.44.08" style="fill:#fff; stroke-width:0px;"/><path d="M65.2,11.12l.15.07c.09.04.23.09.41.14.19.05.37.09.55.13.18.04.35.07.51.1.15.03.25.06.28.08l.39.18c.01.06.05.12.1.18.05.06.1.11.16.16.06.06.13.12.21.17l.69.32s.07.02.09,0c.02-.02.06-.01.12.01l.16.16s.07.02.14.04c.08.01.16.01.26,0,.09-.01.19-.04.28-.09.09-.05.16-.13.21-.24.04-.09,0-.19-.13-.29-.13-.1-.27-.22-.43-.36-.15-.14-.27-.3-.36-.49-.09-.19-.07-.41.05-.67l.18-.38v-.31s.14-.28.14-.28c.05-.11.09-.26.12-.45.03-.19.08-.37.15-.52.02-.05.07-.08.16-.11.09-.03.16-.03.21,0,.12.06.22.17.31.33.07.18.13.4.17.68.04.27.07.55.09.84.07.36.15.74.25,1.15.1.41.2.77.29,1.07.04.19.08.35.14.5.06.15.14.28.23.38l.19.28c.1.11.18.21.24.28.06.07.12.14.19.19.07.05.14.1.23.15.09.05.21.11.37.18.33.14.58.18.75.13.18-.06.3-.15.37-.29.07-.14.11-.3.11-.47,0-.17,0-.3-.03-.37-.03-.13-.11-.21-.24-.27-.13-.05-.24-.1-.31-.13l-.27-.13c-.09-.19-.17-.37-.25-.54-.06-.15-.13-.3-.2-.45-.07-.15-.13-.27-.17-.38-.07-.11-.12-.24-.15-.4-.03-.15-.05-.31-.07-.46-.02-.16-.04-.31-.06-.45-.02-.15-.05-.26-.08-.36-.02-.05-.06-.11-.1-.21-.05-.09-.09-.2-.13-.32-.04-.12-.09-.25-.13-.39-.04-.14-.07-.28-.08-.42,0-.15-.02-.26-.04-.34-.02-.08-.01-.15.02-.22.03-.06.1-.12.23-.21.13-.08.28-.17.45-.26.17-.09.35-.17.54-.26.19-.09.37-.16.53-.22.11-.04.25-.07.44-.09.18-.02.32-.04.42-.06.03.01.13.06.31.15.18.09.37.16.59.22.21.06.42.09.61.09.2,0,.33-.09.41-.25.07-.14.07-.31,0-.52-.06-.21-.19-.36-.38-.45l-1.15-.55c-.11-.05-.19-.07-.24-.05-.05.02-.11.01-.18-.02l-.17-.08c-.09-.04-.23-.03-.43.05-.19.08-.41.2-.65.38-.17.11-.35.23-.52.36-.18.14-.36.27-.54.39-.38.29-.7.5-.95.63-.07.03-.13.06-.18.08-.05.02-.1.02-.14,0-.03-.01-.05-.04-.06-.08-.01-.04-.02-.08-.02-.13-.01-.05-.01-.11,0-.17l.05-.11c.03-.14.06-.27.09-.39.05-.23.1-.39.14-.49l.12-.26c.04-.09.11-.18.19-.25.09-.08.18-.13.28-.17.1-.04.2-.06.3-.07.1,0,.19,0,.27.04.04.02.07,0,.09-.04.03-.04.05-.09.08-.15.07-.16.05-.3-.06-.43-.12-.13-.23-.22-.34-.28l-.59-.14-.38-.18s-.09-.05-.16-.09c-.07-.04-.14-.09-.21-.14-.07-.05-.14-.1-.21-.15-.07-.05-.11-.08-.14-.09l-.15-.07-.22-.1c-.07-.03-.16-.07-.26-.1-.1-.03-.2-.04-.3-.04-.1,0-.2.02-.29.06-.09.04-.16.12-.22.23-.08.17-.05.3.07.41.13.11.27.23.43.36.16.13.28.28.38.46.1.18.08.41-.06.7-.02.05-.06.11-.1.19-.05.08-.1.16-.16.24-.07.09-.14.2-.22.32l-.31.65c.02.09.01.19-.03.31-.05.12-.1.24-.15.36l-.25.54-.12.26c-.06.12-.13.25-.23.4-.1.15-.17.32-.2.52-.01.12-.05.23-.13.34-.03.05-.07.1-.1.15l-.12.26c-.03.06-.06.12-.1.18-.04.06-.08.07-.14.04l-.49-.23-.48-.09-.11-.05c-.07-.03-.16-.03-.27,0-.11.04-.22.09-.33.15-.11.06-.21.13-.3.21-.09.08-.14.14-.17.2-.03.11-.01.2.05.28.06.08.13.14.2.17" style="fill:#fff; stroke-width:0px;"/><path d="M83.63,15.39c0,.19,0,.36-.01.51,0,.15-.03.29-.07.42-.04.13-.13.28-.26.44l-.65.77-.27.32c-.18.22-.41.38-.69.48-.27.11-.55.17-.84.18-.28.01-.56-.02-.82-.09-.26-.07-.47-.18-.64-.32l-.22-.19c-.19-.16-.32-.42-.41-.78-.08-.36-.13-.74-.15-1.13-.01-.39,0-.75.05-1.09.05-.33.12-.56.21-.67l.6-.71.17-.2c.05-.06.2-.17.44-.32.24-.15.51-.3.81-.44.3-.14.59-.24.87-.31.28-.07.49-.04.62.07.09.11.17.22.25.31.07.09.15.17.23.25.08.08.15.15.21.2l.22.19c.08.07.14.16.19.28.05.12.09.25.12.38.03.13.05.26.07.39.01.13.03.25.06.35-.06.28-.09.51-.1.7M84.15,18.42l.27-.32.68-.74c.14-.16.26-.38.35-.64.1-.27.11-.62.04-1.07-.02-.11,0-.25.04-.44.04-.19.06-.33.04-.44,0-.19-.07-.37-.19-.54-.12-.17-.21-.33-.27-.5,0-.04-.03-.11-.07-.19-.05-.09-.1-.18-.15-.27-.06-.1-.13-.21-.2-.33l-.23-.2-.33-.46-.22-.19-.56-.47c-.08-.07-.17-.12-.27-.16-.1-.04-.21-.07-.33-.11-.12-.03-.23-.07-.32-.13-.09-.06-.18-.13-.28-.22l-.43-.15c-.08-.06-.22-.09-.43-.07-.21.02-.42.05-.64.11-.22.06-.41.11-.59.18-.17.07-.27.11-.29.13-.16.06-.3.13-.42.2s-.23.16-.33.28c-.12.08-.23.15-.32.19-.09.04-.17.09-.25.14-.08.05-.15.09-.22.14-.07.05-.13.11-.2.19-.33.39-.6.85-.81,1.38-.22.53-.41,1.06-.57,1.58-.09.38-.07.71.05,1,.12.29.25.58.38.85.07.15.14.29.21.41.05.11.12.22.19.32.08.11.15.18.21.24l.2.17c.06.05.13.1.19.15.06.04.12.07.17.11.05.04.09.07.12.09.15.13.27.24.34.34.07.09.16.18.25.26.22.19.48.29.78.32.29.02.61.04.96.05.19.05.39.08.61.09.22.01.43-.04.62-.16.06-.03.2-.09.41-.18.21-.09.44-.19.68-.31s.47-.22.68-.34c.21-.11.35-.21.42-.3" style="fill:#fff; stroke-width:0px;"/><path d="M86.28,27.4c.1.12.21.24.3.35.1.11.17.16.23.16.14.05.34.06.62.03.28-.03.55-.07.83-.12s.53-.11.75-.16c.22-.05.34-.09.36-.11.05-.04.07-.12.05-.25s-.04-.22-.07-.27c-.05-.07-.09-.1-.12-.11-.04,0-.13.01-.28.04-.04-.06-.11-.1-.21-.12-.1-.03-.2-.05-.31-.07-.09-.02-.22-.07-.39-.14-.17-.07-.33-.15-.49-.23-.16-.08-.31-.16-.44-.24-.13-.07-.2-.12-.22-.15l-.25-.34-.27-.37-.25-.34c-.05-.07-.07-.14-.05-.21.01-.07.04-.15.08-.22.04-.07.09-.14.14-.2s.09-.1.11-.11l.14-.1.34-.25.68-.5.67-.5c.27-.12.56-.26.86-.4.3-.14.56-.29.78-.45l.37-.27c.17-.13.34-.18.51-.15.17.03.32.12.44.3l.27.37s.07.06.15.09c.08.04.17.08.26.11.11.05.23.09.36.13l.23-.17c.12-.09.18-.21.17-.36-.01-.15-.06-.28-.14-.4l-1.95-2.65s-.05-.06-.11-.09c-.05-.04-.12-.06-.19-.08-.08-.02-.16-.02-.25-.01-.09,0-.17.04-.25.1-.17.13-.26.25-.27.36,0,.11,0,.23.02.35.02.12.01.24-.02.38-.03.13-.17.28-.39.45l-.13.1s-.09.09-.12.17c-.03.08-.08.14-.14.19-.16.08-.3.15-.44.23-.12.06-.23.12-.33.18-.1.06-.17.1-.2.13l-.44.32-.99.58-1.03.76c-.23.17-.42.22-.57.16-.15-.06-.29-.14-.41-.25-.12-.11-.25-.2-.37-.28-.12-.08-.27-.06-.44.07-.03.02-.08.06-.13.11-.05.05-.1.1-.14.16-.04.06-.07.13-.07.21,0,.08.02.16.09.25.05.04.11.07.17.1.05.03.1.07.16.11.06.04.11.1.16.17.02.02.05.08.09.17.04.09.09.18.14.29.05.1.09.2.14.29.04.09.08.14.09.17l.57.49.15.13c.08.03.17.14.26.33.09.19.2.38.33.55l.17.23.25.34c.14.19.26.35.38.49" style="fill:#fff; stroke-width:0px;"/><path d="M90.6,31.34c-.26.11-.46.12-.59.03-.13-.09-.25-.2-.35-.34-.1-.14-.2-.25-.3-.36-.1-.11-.25-.12-.44-.03-.04.02-.09.04-.15.07-.06.03-.12.08-.18.13-.05.05-.09.11-.12.18-.02.07-.01.16.03.26.04.05.09.09.14.14.04.04.08.09.13.14.05.06.09.12.12.2.01.03.03.09.06.18.03.09.05.2.07.31.02.11.04.21.07.31.02.09.04.16.06.18l.44.6.12.16c.08.04.14.17.18.38.05.21.11.41.2.61l.11.26.17.39c.09.21.18.4.26.57.07.14.15.28.22.41.07.13.13.2.18.21.12.08.32.14.6.17.28.04.56.06.84.07.29,0,.54.01.76,0,.22,0,.35-.01.38-.02.06-.03.09-.1.11-.23.01-.13.01-.22-.01-.28-.03-.07-.07-.12-.1-.13s-.13-.02-.28-.02c-.03-.07-.09-.12-.18-.17-.09-.05-.19-.09-.29-.14-.08-.04-.2-.11-.35-.22-.15-.11-.29-.22-.43-.34-.14-.12-.26-.22-.37-.32-.11-.1-.17-.17-.18-.19l-.17-.39-.18-.42-.17-.39c-.03-.07-.03-.15,0-.21.03-.07.07-.13.13-.2.06-.06.11-.12.18-.16.06-.04.11-.07.14-.08l.15-.07.39-.17.78-.34.77-.33c.29-.06.6-.13.93-.2.32-.07.61-.16.86-.27l.42-.18c.19-.08.37-.1.53-.03.16.06.28.19.37.39l.18.42s.06.07.13.13c.07.06.15.11.23.17.1.07.2.14.32.21l.26-.12c.14-.06.22-.17.24-.31.02-.15,0-.29-.05-.42l-1.32-3.02s-.04-.07-.08-.11c-.04-.05-.1-.09-.17-.12-.07-.04-.15-.06-.24-.07-.09-.01-.18,0-.27.04-.19.09-.31.18-.34.29-.03.11-.05.22-.06.34,0,.12-.04.24-.11.36-.06.12-.23.24-.49.35l-.15.07c-.06.02-.11.07-.15.14-.05.07-.11.12-.18.15-.17.04-.33.08-.48.12-.13.03-.25.07-.36.11-.11.04-.19.06-.22.08l-.5.22-1.09.34-1.17.51Z" style="fill:#fff; stroke-width:0px;"/><path d="M97.56,40.38s-.06-.01-.12,0l-.25.05-1.07.08-.37.07-.54.1-.28.05c-.07.03-.13.07-.18.1-.05.03-.1.06-.15.08-.05.02-.1.04-.15.05-.05.08-.1.11-.16.09-.06-.03-.12-.03-.17-.02-.33.06-.54.07-.65,0-.1-.06-.2-.19-.28-.39-.05-.09-.12-.21-.22-.34-.06-.07-.11-.15-.15-.22-.07-.37-.23-.53-.48-.48-.03,0-.07.03-.12.08-.05.04-.09.1-.14.16-.05.06-.08.12-.11.19-.03.07-.04.12-.03.18l.12.44.15.28.09.45.15.79.22.48.32,1.44c.02.11.03.2.03.28,0,.08,0,.15-.02.21-.01.06-.03.12-.03.17,0,.05,0,.11,0,.17.03.16.09.27.18.34.09.07.2.11.32.15.12.03.26.07.41.1.15.03.3.11.45.22.07.06.14.11.21.15.07.04.14.05.21.04.03,0,.06-.03.08-.06.02-.03.05-.07.07-.11.03-.05.06-.09.08-.14-.02-.12-.07-.25-.15-.38-.08-.13-.16-.28-.26-.44-.12-.15-.23-.31-.31-.46-.09-.15-.14-.3-.17-.44l-.16-.84c0-.16.04-.28.11-.36.07-.09.16-.15.28-.2.11-.05.24-.09.38-.13.14-.04.27-.08.41-.14l.37-.07c.27-.05.46-.05.56,0,.1.05.18.2.23.45l.06.3.05.24c.02.11.01.21-.02.29-.03.08-.06.18-.08.3-.04.07-.07.15-.1.24-.03.09-.03.19-.01.3.05.25.21.35.49.29l.99-.19.15-.18s.08-.1.11-.15c.03-.05.05-.09.04-.12-.01-.06-.04-.11-.09-.16-.05-.05-.1-.1-.16-.15-.06-.05-.11-.1-.16-.16-.05-.06-.09-.12-.1-.21l-.06-.3c-.04-.1-.08-.19-.11-.27-.04-.08-.07-.15-.09-.22-.02-.07-.04-.12-.04-.15-.02-.13.03-.24.15-.32.12-.08.26-.14.41-.17l1.07-.21s.08,0,.14,0c.06,0,.12,0,.19,0,.07,0,.15.01.24.02l.13-.02s.09,0,.17.05c.07.04.15.09.26.13l.13.27c.07.36.08.67.04.95-.05.28-.11.52-.18.73-.08.21-.15.38-.22.52-.07.14-.1.24-.09.3.05.25.17.35.35.32.1-.08.2-.15.3-.21.07-.06.15-.11.22-.17.08-.06.13-.1.15-.14.12-.08.26-.15.44-.21.18-.05.32-.13.44-.22.04-.09.08-.19.11-.31.03-.11.04-.21.03-.28,0-.03-.02-.07-.04-.13-.02-.06-.05-.11-.08-.17-.03-.07-.07-.14-.1-.21l-.21-.47c-.03-.17-.05-.31-.06-.41-.01-.11-.02-.2-.03-.27,0-.08-.01-.14-.01-.2,0-.06,0-.11-.02-.17l-.2-1.03c-.04-.19-.07-.34-.11-.47-.04-.12-.06-.21-.08-.27l-.06-.3-.09-.49c-.01-.06-.05-.11-.11-.16-.06-.04-.12-.06-.18-.05-.21.04-.39.12-.53.23-.14.11-.2.27-.16.46l.08.42c.01.05,0,.13-.04.24-.04.11-.1.17-.19.19l-.45.09-.42.08-.79.15c-.06.01-.1.01-.12,0" style="fill:#fff; stroke-width:0px;"/><path d="M102.03,53.1c-.01-.09-.03-.16-.05-.22-.02-.06-.04-.13-.06-.19-.01-.07-.02-.17-.01-.33v-.17s0-.09,0-.15c0-.06-.02-.12-.02-.18,0-.07-.02-.15-.02-.23,0-.18-.06-.41-.2-.67-.14-.26-.32-.52-.53-.76-.21-.25-.45-.46-.69-.64-.25-.18-.48-.27-.71-.28l-.25-.13c-.08,0-.18-.02-.31-.06-.12-.04-.25-.08-.37-.12-.14-.06-.29-.12-.45-.18h-.41s-.59-.03-.59-.03c-.08,0-.18.02-.3.07-.12.05-.22.08-.3.08h-.26c-.15-.01-.34.03-.57.11-.23.08-.46.18-.69.3-.23.12-.43.23-.61.35-.18.12-.29.22-.32.3-.07.03-.13.07-.17.14-.04.06-.08.13-.11.21-.03.08-.06.15-.09.21s-.06.11-.1.14c0,.08-.02.2-.04.35-.03.15-.07.3-.12.45-.04.08-.08.16-.1.25-.02.09-.04.16-.04.21v.41c-.02.09-.03.19-.05.3-.02.11-.04.21-.07.3-.03.1-.05.19-.07.27-.02.08-.03.15-.03.19v.24s.13,1.02.13,1.02c.04.08.08.16.11.22.04.05.08.1.12.15.04.05.1.07.17.07.07.03.15.05.23.06s.16,0,.24,0c.08,0,.16-.02.25-.04.15,0,.26.03.33.07.07.04.17.07.3.07h.46s.43.03.43.03c.13,0,.28.08.43.22.16.14.23.32.23.53v.17c0,.06.06.12.19.17.14.05.23.08.29.08.04,0,.08-.02.12-.06.04-.04.07-.09.1-.14.03-.06.06-.12.08-.19,0-.14,0-.25-.01-.34-.01-.08-.03-.15-.04-.2-.01-.05-.03-.1-.03-.15,0-.05-.01-.1-.01-.17v-.29s.03-.73.03-.73l.02-.67c0-.09,0-.17,0-.24,0-.06-.02-.12-.05-.16-.02-.05-.06-.07-.1-.07-.09,0-.17.06-.22.21-.04.08-.14.17-.29.29-.15.11-.3.21-.44.28-.13.06-.26.1-.39.12-.13.03-.25.05-.37.06h-.3c-.2-.02-.35-.1-.45-.27-.1-.17-.15-.33-.15-.47l-.17-.55c0-.25.08-.49.23-.71.14-.22.32-.41.53-.58.21-.17.44-.32.69-.44.25-.12.48-.22.69-.28.14-.06.26-.09.36-.1s.21,0,.36,0c.14,0,.27.03.39.07.12.04.28.07.48.08.42.04.8.16,1.13.35.33.19.6.41.83.68.22.26.39.56.5.88.11.32.16.65.15.97-.07.22-.14.44-.22.65-.07.17-.14.35-.21.53-.08.19-.15.33-.21.44-.22.17-.42.32-.59.45-.15.12-.28.23-.4.34-.12.11-.18.19-.18.24,0,.06.03.1.1.11.07.01.13.02.21.02.05.05.11.09.18.11.04.01.07.02.1.02.03-.02.07-.04.11-.06.04-.02.08-.03.13-.04.05,0,.11-.01.19,0,.04,0,.16-.01.36-.05.2-.03.41-.09.64-.17.22-.08.43-.19.61-.33.18-.14.28-.32.28-.53v-.42s.02-.29.02-.29l.02-.55.02-.59c0-.18,0-.32,0-.4" style="fill:#fff; stroke-width:0px;"/><path d="M28.97,89.85l-.22.36-.2.32c-.05.08-.13.14-.26.17-.12.04-.26.06-.4.06-.14,0-.28,0-.41-.03-.13-.02-.23-.05-.29-.09-.12-.07-.2-.14-.25-.21-.05-.06-.07-.14-.06-.22,0-.08.02-.17.05-.26.03-.09.08-.2.14-.34l.2-.32.15-.25.14-.22c0-.07.06-.14.15-.2.09-.07.19-.13.31-.18.11-.05.23-.08.34-.1.11-.01.19,0,.24.03.11.07.2.17.28.3.07.13.13.27.16.42.03.15.05.29.03.42-.01.14-.04.24-.09.32M27.67,92.68s-.03.07-.04.09c-.01.02-.03.05-.06.08-.03.03-.06.08-.1.14-.04.07-.09.16-.15.27-.06.13-.15.23-.28.3-.13.07-.27.12-.43.15-.16.03-.32.03-.49.02-.17-.01-.31-.04-.44-.08-.08-.03-.16-.05-.24-.06-.08-.01-.18-.06-.29-.12-.06-.04-.1-.09-.13-.16s-.05-.14-.05-.22c0-.07,0-.15,0-.21.01-.07.02-.11.04-.14l.2-.32.29-.47c.03-.05.09-.13.18-.23.09-.1.18-.2.29-.28.11-.09.22-.15.35-.2.13-.04.25-.02.37.05l.08.05.1.06c.11.07.23.15.35.25.12.1.23.2.32.31.09.11.15.23.18.35.03.12.01.25-.05.36M30.42,88.37c-.13-.24-.29-.45-.49-.64-.19-.19-.41-.35-.64-.49l-.08-.05-.14-.09s-.08-.06-.15-.11c-.06-.05-.1-.12-.1-.21l-.36-.22-.1-.06-.1-.06-.44-.27-.64-.23-.26-.16c-.05-.03-.13-.07-.22-.1-.1-.04-.2-.06-.3-.07-.1,0-.2,0-.3.02-.1.02-.17.07-.22.15-.06.1-.07.2-.03.3.04.11.1.22.19.35.08.12.18.26.28.4.1.14.18.3.24.46.06.17.08.35.07.53-.01.19-.08.4-.22.62-.04.07-.11.14-.2.21-.09.07-.15.13-.19.19l-.13.21-.14.22c-.17.2-.29.34-.34.42-.05.08-.08.13-.09.15,0,.02,0,.04.02.05.01,0,0,.04-.04.1-.01.02-.05.07-.12.13s-.12.12-.18.18c-.08.08-.16.16-.24.24l-.22.36c-.03.05-.08.13-.16.23-.07.1-.17.19-.3.28l-.2.32s0,.06,0,.09c-.02.07-.06.11-.13.13-.02.03-.03.06-.05.11-.02.05-.04.09-.06.13-.02.04-.06.06-.09.08-.04.01-.08,0-.13-.03-.05-.03-.16-.07-.32-.12s-.26-.09-.32-.12l-.22-.14c-.12-.07-.24-.06-.37.04-.13.1-.23.21-.3.33-.04.06-.05.13-.02.2.02.07.09.15.21.22.03.03.06.06.11.1s.08.07.1.11c.03.03.04.06.05.09,0,.02,0,.04-.03.05l.26.16c.06.04.14.05.23.05h.18s.26.36.26.36l.08.05.36.22.36.22.85.52c.36.22.73.37,1.09.44.36.07.74.1,1.12.09.1.03.18.03.25.02.06-.02.12-.04.17-.07.05-.03.1-.07.16-.11.06-.04.13-.07.22-.09.21-.12.35-.25.42-.38.07-.13.18-.26.31-.41l.22-.36c.05-.09.1-.21.15-.36.05-.15.08-.3.09-.45.02-.15,0-.29-.02-.42-.03-.13-.09-.23-.18-.28-.04-.09-.07-.18-.09-.25-.02-.07-.03-.14-.05-.2-.02-.06-.01-.11,0-.13.03-.05.11-.1.24-.14.13-.04.27-.09.43-.14.16-.05.31-.12.47-.19.16-.08.28-.19.37-.34l.42-.69c.05-.35.05-.67,0-.96-.05-.29-.14-.56-.27-.8" style="fill:#fff; stroke-width:0px;"/><path d="M39.43,93.04c0-.09-.02-.16-.04-.2-.01-.14,0-.31.04-.48.04-.18.05-.34.03-.49-.06-.09-.13-.17-.21-.25-.08-.08-.16-.14-.23-.16-.03-.01-.07-.02-.13-.03-.06-.01-.12-.02-.19-.02-.07,0-.15-.01-.24-.02l-.51-.05c-.16-.06-.29-.11-.39-.15-.1-.05-.18-.08-.25-.11-.07-.03-.13-.06-.18-.09s-.1-.05-.16-.07l-.99-.35c-.18-.06-.33-.11-.46-.14-.12-.03-.22-.05-.27-.07l-.29-.1-.47-.17c-.06-.02-.12-.02-.19.01-.07.03-.11.07-.14.13-.07.2-.09.39-.07.57.03.18.13.31.31.37l.4.14s.11.07.19.15c.08.09.1.17.07.26l-.15.43-.14.4-.27.76c-.02.06-.04.09-.06.11-.02.02-.04.05-.06.11l-.09.24-.47.96-.13.36-.18.51-.1.27c0,.07,0,.14,0,.21,0,.05,0,.11-.01.16,0,.06-.02.11-.04.16.05.08.04.14,0,.18-.05.04-.09.09-.1.13-.11.32-.22.5-.32.56-.1.06-.26.07-.47.04-.11,0-.24,0-.41.02-.09.01-.18.02-.26.02-.35-.12-.57-.07-.66.17-.01.03,0,.07,0,.14.01.06.04.13.07.2.03.07.07.13.11.19.04.06.09.1.14.11l.44.12.32.02.43.15.76.27.53.06,1.4.45c.1.04.19.08.26.12.07.04.12.08.17.12.04.04.09.08.13.11.04.03.09.06.15.08.15.05.28.06.38.01.1-.04.2-.11.29-.2.09-.09.19-.19.29-.3.1-.11.24-.2.42-.28.09-.03.16-.07.23-.11s.11-.09.14-.16c0-.03,0-.06-.01-.1-.02-.04-.04-.08-.06-.12-.02-.05-.05-.1-.08-.14-.12-.04-.25-.06-.41-.06-.15,0-.32,0-.51,0-.19.03-.38.04-.55.04-.18,0-.33-.03-.46-.08l-.8-.28c-.13-.08-.22-.17-.26-.28-.04-.11-.05-.22-.03-.34.02-.12.04-.25.08-.39.04-.14.07-.28.08-.42l.13-.36c.09-.26.19-.42.28-.48.1-.06.26-.05.5.03l.29.1.23.08c.1.04.18.09.24.17.05.07.13.15.22.22.04.07.09.14.15.21.06.07.14.12.25.16.24.08.4,0,.5-.27l.33-.95-.08-.22c-.02-.06-.04-.12-.07-.17-.02-.05-.05-.08-.08-.09-.06-.02-.12-.02-.18,0-.07.02-.14.04-.21.06-.07.02-.15.04-.22.06-.08.02-.15.01-.23-.02l-.29-.1c-.1-.01-.2-.03-.29-.04-.08,0-.16-.02-.23-.03s-.12-.03-.15-.04c-.12-.04-.19-.14-.2-.29-.01-.15,0-.3.06-.44l.37-1.03s.03-.07.06-.12c.03-.05.06-.11.1-.16.04-.06.09-.12.13-.19l.05-.13s.06-.08.13-.11c.07-.04.15-.09.24-.16l.3.02c.34.12.62.27.84.45.22.18.4.35.54.53.14.17.26.33.34.46.08.13.15.21.21.23.24.08.39.04.45-.14-.02-.12-.03-.25-.03-.37-.01-.09-.02-.18-.03-.28" style="fill:#fff; stroke-width:0px;"/><path d="M48.14,96.45c-.04.12-.1.25-.17.38-.07.13-.15.24-.26.34-.1.1-.22.14-.35.12l-.29-.15c-.05,0-.11,0-.18.03-.07.02-.15.05-.23.07-.09.03-.19.06-.28.09-.07,0-.16-.04-.26-.08-.1-.05-.19-.11-.28-.18-.08-.08-.15-.16-.19-.25-.04-.09-.04-.18,0-.28,0-.05,0-.08,0-.1,0-.02-.02-.03-.04-.06l-.06-.04c0-.06.03-.12.08-.18.05-.06.08-.13.08-.21l.03-.26.06-.59.03-.26c.01-.14.06-.24.13-.3.07-.06.14-.09.21-.08.08-.04.15-.07.21-.08.06,0,.12-.02.17-.04.05,0,.1-.01.14-.02.06,0,.16.03.29.08.13.04.27.09.4.15.13.05.26.1.37.14.11.04.18.07.21.07.07.07.11.16.12.29,0,.12,0,.21,0,.28.07.09.11.17.12.23,0,.07,0,.14,0,.21l.05.43s-.06.12-.1.24M50.71,101.5c-.12-.07-.22-.12-.28-.14-.16-.05-.29-.12-.4-.23-.11-.11-.21-.23-.31-.36-.09-.13-.18-.26-.27-.39-.08-.13-.18-.24-.29-.34-.06-.04-.13-.13-.21-.28-.08-.15-.16-.32-.23-.51-.07-.19-.13-.38-.17-.57-.04-.19-.06-.34-.05-.45,0-.1.04-.18.09-.24.05-.06.11-.1.17-.13.06-.03.13-.06.2-.09.07-.03.13-.08.17-.15.07-.09.16-.22.26-.36.1-.15.2-.3.29-.47.09-.16.17-.33.24-.49.07-.17.11-.32.12-.46,0-.03,0-.1,0-.2-.01-.1-.02-.21-.04-.33-.02-.12-.04-.22-.08-.31-.03-.09-.07-.14-.11-.14,0-.11-.04-.21-.09-.3-.05-.09-.1-.17-.16-.24-.16-.14-.27-.33-.32-.58-.13-.15-.27-.3-.43-.48-.16-.17-.34-.27-.54-.29l-.59-.06c-.11,0-.22.02-.32.03-.08.01-.17.02-.25.02-.08,0-.14,0-.17,0l-1.56-.16-2.57-.14c-.08.02-.16.05-.22.09-.05.02-.1.05-.15.08s-.08.06-.08.09c-.02.15,0,.28.05.37.05.1.12.18.21.24.09.06.19.11.3.14.11.03.22.05.33.06l.59.06c.13.04.22.12.27.23.06.11.09.23.1.35.01.13.02.26.01.41,0,.14,0,.26.02.37l-.23,1.08-.25,2.45-.16,1.59c-.01.13-.09.25-.24.35-.15.1-.32.14-.52.12l-.3-.03c-.08-.02-.15-.04-.22-.05-.06-.02-.12-.03-.18-.05-.06-.02-.1-.03-.13-.03-.06.02-.12.05-.16.09-.04.03-.08.05-.11.08-.03.03-.05.06-.06.09-.01.11.06.21.2.29.14.08.31.15.49.2.18.06.36.1.52.13s.26.05.29.05l.59.06.26.03.71.07.33.03.83.21.54.06c.06,0,.13-.01.2-.06.08-.04.12-.1.12-.17.01-.15-.05-.27-.2-.36-.15-.09-.31-.19-.48-.28-.17-.1-.33-.22-.48-.35-.14-.14-.2-.33-.18-.57l.03-.3-.09-.73c0-.07.02-.16.04-.27.02-.11.06-.21.1-.31.05-.1.1-.18.18-.25.07-.07.17-.1.29-.08.14.01.24.06.3.14.06.08.15.16.29.26.06.07.12.16.17.27.05.11.1.23.15.37.05.13.11.27.19.42.07.15.16.31.26.47.08.1.17.21.26.33.09.12.19.24.28.35.1.11.18.21.27.29.08.09.15.15.21.18.14.11.26.21.36.33.1.11.28.26.53.45.07.03.16.05.28.06.12.01.21.05.27.12.02.01.08.03.19.04.11.02.23.02.37.02.14,0,.27-.02.39-.06.12-.04.2-.11.24-.22.03-.08.04-.13.04-.16,0-.03-.03-.07-.08-.14-.06-.08-.16-.15-.28-.22" style="fill:#fff; stroke-width:0px;"/><path d="M61.36,98.32c-.12-.05-.21-.07-.27-.06-.08.01-.13.03-.15.06-.02.03-.05.12-.09.26-.07,0-.14.05-.21.13-.07.08-.14.15-.21.24-.06.07-.16.16-.31.27-.14.11-.29.22-.44.32-.15.1-.29.19-.42.27-.13.08-.21.12-.24.12l-.42.06-.45.06-.42.06c-.08.01-.15,0-.21-.06-.06-.05-.11-.11-.16-.18-.05-.07-.08-.14-.11-.22-.03-.07-.04-.12-.04-.15l-.02-.17-.06-.42-.12-.84-.11-.83c.02-.3.04-.61.06-.94.02-.33.01-.63-.03-.9l-.06-.45c-.03-.21,0-.38.11-.52.1-.14.26-.22.47-.25l.45-.06s.08-.03.16-.09.15-.11.22-.18c.09-.07.19-.16.29-.25l-.04-.29c-.02-.15-.1-.26-.24-.32-.14-.06-.28-.09-.42-.07l-3.27.45s-.07.02-.13.05c-.06.03-.11.07-.17.13-.05.06-.1.13-.13.21-.03.08-.05.17-.03.27.03.21.09.35.19.4.1.06.2.11.31.15.11.04.22.11.32.2.1.09.17.28.21.56l.02.17c0,.06.04.12.1.19.06.06.09.14.1.22,0,.17-.01.34,0,.49,0,.13,0,.26,0,.38,0,.12.01.2.02.24l.08.54.03,1.14.17,1.26c.04.28,0,.47-.13.58-.12.1-.26.18-.42.24-.16.06-.3.12-.43.19-.13.07-.18.21-.15.42,0,.04.01.1.03.17.01.07.04.14.07.2.03.07.08.12.15.16.06.04.15.06.26.04.06-.03.11-.06.17-.1.05-.03.1-.06.17-.09.07-.03.14-.05.22-.06.03,0,.09,0,.19,0,.1,0,.2,0,.32.02.11,0,.22.02.32.02.1,0,.16,0,.19,0l.7-.27.19-.07c.06-.06.2-.08.42-.07.22.01.43,0,.64-.03l.29-.04.42-.06c.23-.03.44-.07.62-.1.16-.03.31-.07.45-.1.14-.04.23-.08.25-.12.11-.1.22-.27.33-.53.11-.25.21-.52.29-.79.08-.27.16-.52.21-.73.06-.22.08-.34.08-.37,0-.06-.07-.12-.19-.17" style="fill:#fff; stroke-width:0px;"/><path d="M68.6,97.76l-.35.02s-.07,0-.13,0c-.06-.01-.12-.03-.17-.06-.06-.03-.11-.07-.16-.11-.05-.04-.08-.08-.09-.12-.07-.2-.08-.33-.04-.39.04-.06.05-.12.03-.18l-.14-.4c-.02-.07-.04-.19-.06-.38-.01-.19-.06-.38-.12-.58l-.37-.68s-.03-.08-.07-.15-.09-.15-.14-.23c-.05-.08-.1-.15-.14-.22-.04-.07-.07-.12-.08-.15l-.07-.73s-.03-.07-.07-.12c-.04-.05-.08-.1-.12-.15-.05-.06-.1-.12-.14-.19l-.34-1.01c-.02-.06.02-.12.12-.2.1-.08.22-.15.36-.23.13-.08.25-.15.36-.22.1-.07.15-.12.14-.16-.02-.07-.06-.13-.12-.19-.06-.06-.12-.11-.18-.15-.06-.04-.12-.08-.19-.1-.06-.02-.1-.03-.12-.02-.04.01-.1.03-.17.04-.08.01-.15.03-.24.04-.08.01-.16.02-.23.03s-.12.02-.15.03l-.04.08c-.04.06-.09.09-.12.11l-.16.05c-.1.06-.19.11-.28.16-.07.05-.15.09-.23.12-.08.04-.15.07-.21.09-.06,0-.12,0-.18,0-.06,0-.11,0-.17,0-.06,0-.1.02-.14.03l-.52.18-.27.09s-.06.04-.06.07c0,.03,0,.07,0,.1,0,.04.01.08.02.12.06.18.13.31.19.38.07.07.14.12.21.14.07.01.14,0,.21,0,.07-.01.14-.03.2-.04.06-.02.13-.03.19-.03.06,0,.13,0,.19.04.07.05.14.13.21.23.07.1.13.25.2.44.01.04.02.1.03.18,0,.08.01.16.02.24,0,.11.01.21.03.33l.29.34.7,2.09.32.96.13.39c.02.07.03.14.01.23-.01.09.04.19.17.31.08.13.09.26.03.39-.06.13-.14.25-.24.38s-.19.25-.28.37-.11.23-.07.34c.02.07.1.12.22.14.12.03.21.03.27.01.03,0,.09-.05.17-.11.09-.06.18-.13.28-.21.1-.08.2-.15.3-.21.1-.06.17-.11.23-.12l.59-.02.27-.09.27-.09.25-.08c.16-.06.31-.14.45-.27.13-.13.18-.25.14-.36-.09-.28-.3-.43-.61-.47" style="fill:#fff; stroke-width:0px;"/><path d="M81.54,91.85c-.05-.09-.09-.15-.11-.18-.03-.05-.08-.11-.16-.18-.07-.07-.15-.14-.24-.21s-.17-.14-.24-.21c-.08-.07-.13-.13-.16-.19l-.57-1.38-.46-.72c-.03-.05-.1-.12-.2-.2s-.17-.15-.2-.2l-.38-.6-.48-.76-.06-.1-.32-.5c-.07-.11-.11-.23-.13-.36-.02-.13.01-.21.08-.26l.22-.14.29-.33c.17-.11.35-.21.54-.32.19-.1.35-.28.47-.52,0-.11,0-.19-.03-.24-.02-.05-.05-.11-.1-.18-.11-.18-.27-.26-.47-.24-.2.02-.38.08-.55.19l-1.78,1.13c-.08.05-.17.1-.28.15-.11.05-.22.1-.33.16-.11.05-.23.11-.33.16-.11.05-.19.09-.25.13l-.24.16c-.05.03-.11.07-.18.12-.07.05-.12.1-.17.16-.05.06-.07.13-.08.2,0,.08.02.16.07.24l.25.4s.05.03.11.05.14.02.22.03c.09,0,.17,0,.26-.01.09-.01.16-.04.21-.07l.24-.15s.08-.02.17,0c.09.02.18.04.28.06.1.03.2.05.3.07.1.02.17.03.22.04l.68,1.08c.09.15.15.28.17.42.02.13.05.24.1.31l.61.96s.04.05.08.08c.04.03.07.06.09.1.02.04.03.08.03.12,0,.04-.04.08-.1.12-.09.06-.27.07-.51.04-.25-.03-.52-.08-.8-.15-.29-.06-.55-.13-.79-.19-.24-.06-.4-.1-.48-.11-.26.02-.49-.02-.68-.12-.19-.1-.4-.18-.62-.25-.15-.03-.31-.07-.49-.14-.18-.07-.36-.14-.55-.21-.19-.07-.37-.14-.55-.2-.18-.06-.34-.1-.5-.12-.16-.02-.31-.01-.45.03-.14.04-.3-.01-.47-.14-.11-.02-.19-.04-.26-.08-.07-.04-.18-.05-.33-.05-.11-.02-.2,0-.28.04-.08.04-.18.1-.29.17l-1.21.76c-.06.04-.09.09-.1.17,0,.08,0,.15,0,.24,0,.09.02.19.04.3.14.21.31.33.51.36.21.03.42.03.64,0,.22-.02.43-.03.63-.02.2,0,.35.1.47.28.02.03.05.06.1.1.05.04.11.08.18.12.07.04.13.08.2.13.06.04.11.08.14.11-.03.02-.05.04-.06.07-.03.05,0,.13.06.23.11.02.19.07.25.13.06.06.1.12.13.17l.54.86c.03.1.06.2.09.3.03.08.06.17.1.26s.08.17.12.23c.04.07.09.12.13.16.04.04.09.08.15.13.06.05.12.11.19.18.06.07.14.17.22.3.04.07.1.12.15.15.03.03.06.06.1.08.02.03.04.07.07.13.03.06.04.13.05.19,0,.07,0,.13-.02.2-.02.07-.06.12-.12.16-.24.15-.42.26-.53.34-.11.07-.19.13-.24.16-.04.03-.07.05-.07.05,0,0-.01.01-.02.02,0,.01-.04.03-.09.06-.05.03-.14.09-.28.18-.06.04-.11.11-.16.21-.04.1-.04.18,0,.25.07.1.13.2.2.29.05.08.1.16.16.23.06.08.1.13.12.17l.26-.16v-.21s.47-.29.47-.29c.13-.08.25-.13.37-.13.11,0,.26-.07.44-.18l.24-.15c.06-.04.14-.09.25-.14.11-.06.21-.08.32-.06l.75-.64,1.46-.93c.06-.04.11-.08.14-.12.04-.04.03-.09-.01-.16-.09-.14-.2-.21-.35-.22-.14-.01-.3.01-.47.07-.17.06-.34.13-.52.21-.18.08-.36.15-.53.2-.17.05-.33.06-.48.05-.15-.02-.28-.11-.38-.27-.08-.13-.14-.23-.16-.3-.03-.07-.1-.19-.21-.36l-.56-.65-.32-.5-.61-.96c-.16-.26-.16-.44,0-.54.06-.04.13-.05.21-.05.08,0,.16.02.24.05.07.02.14.06.2.1.06.04.1.07.12.1.26.13.56.23.9.3.34.07.68.13,1.02.19.34.06.68.12,1,.2.32.07.6.18.83.34.13.09.25.15.38.19.13.04.26.07.39.1.13.02.26.05.4.09.14.03.3.08.47.15.18.03.37.1.56.22.19.12.38.2.58.24.01.02.06.03.14,0,.07-.02.16-.06.25-.1.09-.05.18-.09.26-.15.08-.05.14-.09.17-.11.05-.03.07-.09.06-.17-.01-.08-.04-.17-.08-.26-.04-.09-.09-.19-.14-.27" style="fill:#fff; stroke-width:0px;"/><path d="M53.82,63.07c-1.19-2.01-1.39-8.03,1.19-8.77.19.79,1.89,1.88,2.23.7.48-1.26,2.22-.77,3.12-1.46-.43.33,0,2.12.97,2.47-2.67,1.18-4.8,2.5-7.51,7.06M66.25,60.86c.63.52,1.42-.45,2.59-.02.96.77,2.81.54,2.21-1.09,1.22,1.36,1.96-1.25,3.41-1,4.82.84,1.69-2.19,3.92-3.97.3-.24.29-.72,0-.98-1.81-1.56.53-2.78-.85-4.4-.27-.32-.28-.91-.07-1.28,1.5-2.68-.78-1.11-1.27-3.55-.17-1.01-2.24-.17-2.82-.98-1.93-2.45,2.24-1.32,1.57-3.24-.58-1.66-6.37-.72-6.29-2.02.11-1.99,4.23,1.47,4.32-.96-.19-1.43-1.62-.06-2.2-2.08,1.18-.02,2.09-.5,1.76-1.5.78-.35-.59-1.09-.71-1.13.19-2.24-1.44-2.22-3.12-2.67-1.27-.34-4.82-.9-5.64-2.77-.66-1.5.78-2.98-.16-3.99-.37-.4-1.02-.63-1.64-.49-.93.22-.34.66-1.29,1.27-.95.61-1.58.07-1.89-.2-1.1-.97.22-3.72-.72-4.32-.31-.19-.75-.1-1.22.12-1.98,1.13-3.79,1.33-4.46.57-.13-.15-.26-.38-.3-.75-.21-1.1,2.07-.93,2.1-1.76-.08-.22-.2-.35-.33-.42-.62-.31-1.31.49-2.58.47-.31,0-.91-.02-1.34-.41-.57-.52.34-1.34-.72-1.34-.68,0-.69,1.1-1.28,1.78-1.34,1.52-3.65.37-4.16,1.44-.13.28-.15.75.39,1.59-2.59-.32-3.13.51-3.85,2.44-1.07,2.07-7.35,2.1-6.5,5.45.39,1.54,3.13,2.49,1.99,3.68-.95.99-4.76-1.19-3.94,1.91.34.69-.55.83-.84,1.38-.31.59.28,1.7.01,2.06-.1.25-.29.6-.62.94-1.42,1.44-3.84.71-4.15,1.51-.09.23-.03.63.71,1.37-.28.22-1.32,1.04-1.19,1.87.16,1.01,2.02,1.9,4.74,1.71-1.41,2.55-5.29.15-5.78,2.88-.47.37-2.8-.96-2.33.34.72.82-2.08,1.41-1.5,2.43.72,1.27,2.47-.1,2.09,1.71-.08.66-.99,2.07.28,2.24,1.02.01,2.01-2.08,2.88-.54.12.31.9.11,1.03-.08-.46,2.42,2.69-.39,2.62,1.69-1.39,2.83,1.58,3.83,3.61,1.47.52,2.93,1.87,1.09,3.62,2.56,1.28,1.07,2.11-1.19,3.07-1.57,1.99-.78,3.39,1.47,6.53-.84,6.29-4.61,5.33,16.53,2.16,22.89-2.16,4.35-2.64,4.2,3.35,4.19,4.23,0,5.61.33,4.11-2.67-.3-.6-.53-1.24-.69-1.9-2.08-8.4.48-23.16,8.34-21.39-.04,2.26,2.62.06,3.03,2.34" style="fill:#fff; stroke-width:0px;"/><path d="M95.94,73.08c-2.74,4.25-6.56,10.03-9.88,13.91-.75.19.29.96.47.04.07.16.44.2.28-.08.64-.31,1.12-.78,1.62-1.28-.14.71.44.23.34-.11.18.2.52.12.49-.18.21.11.26-.27.18-.36.26.07.24-.2.11-.33.47.2.98-.47.99-.9.31-.26.63-.43.44-.93.68.1,1.25-1.4,1.66-1.87,1.6-2.51,2.81-4.03,3.76-6.32.44-.47,1.04-1.71.92-2.47.54-.02.25-.76.24-1.13,1.83-2.48,2.62-6.74,3.24-10.46-1.91.39-3.65,9.62-4.86,12.45" style="fill:#fff; stroke-width:0px;"/><path d="M4.04,61.53c.53-.77-1.28-1.61-.51-.26-.16-.03-.4.27-.08.28-.13.67.22,1.33.12,1.92-.56-.16-.14.42.03.48-.17-.03-.48.45-.1.52-.16.15.11.36.27.32,0,.07.05.2.14.24-.22.13-.29.67-.05.78-.09.18.17.67.36.52.11.2-.33.5.08.5.09.17.14.33.41.42-.43.56.59,1.79.74,2.37,1.8,3.41,2.4,6.15,5.02,8.6-.28.46.5.63.83.8-.93.83,10.86,12.64,6.65,6.4-6.57-6.34-11.36-15.62-13.93-23.9" style="fill:#fff; stroke-width:0px;"/></g></g></g></g></svg>